<!--
  -                                  ***   StarForth   ***
  -
  -  secondaryToolbarButton-spreadOdd.svg- FORTH-79 Standard and ANSI C99 ONLY
  -  Modified by - rajames
  -  Last modified - 2025-10-27T12:40:04.613-04
  -
  -  Copyright (c) 2025 (rajames) Robert A. James - StarshipOS Forth Project.
  -
  -  This work is released into the public domain under the Creative Commons Zero v1.0 Universal license.
  -  To the extent possible under law, the author(s) have dedicated all copyright and related
  -  and neighboring rights to this software to the public domain worldwide.
  -  This software is distributed without any warranty.
  -
  -  See <http://creativecommons.org/publicdomain/zero/1.0/> for more information.
  -
  -  /home/rajames/CLionProjects/StarForth/tools/Isabelle2025/contrib/pdfjs-2.14.305/web/images/secondaryToolbarButton-spreadOdd.svg
  -->

<svg xmlns="http://www.w3.org/2000/svg" width="16" height="16"><path d="M10.56 3.5C9.56 3.5 9 4 9 5v6.5c0 1 .5 1.5 1.5 1.5h4c1 0 1.5-.5 1.5-1.5V5c0-1-.5-1.5-1.5-1.5zm1.93 1.2c.8 0 1.4.2 1.8.64.5.4.7 1 .7 1.7 0 .5-.2 1-.5 1.44-.2.3-.6.6-1 .93l-.6.4c-.4.3-.6.4-.7.55-.1.1-.2.2-.3.4h3.2v1.27h-5c0-.5.1-1 .3-1.43.2-.49.7-1 1.5-1.54.7-.5 1.1-.8 1.3-1.02.3-.3.4-.7.4-1.05 0-.3-.1-.6-.3-.77-.2-.2-.4-.3-.7-.3-.4 0-.7.2-.9.5-.1.2-.1.5-.2.9h-1.4c0-.6.2-1.1.3-1.5.4-.7 1.1-1.1 2-1.1zM1.54 3.5C.54 3.5 0 4 0 5v6.5c0 1 .5 1.5 1.54 1.5h4c1 0 1.5-.5 1.5-1.5V5c0-1-.5-1.5-1.5-1.5zm1.8 1.125H4.5V12H3V6.9H1.3v-1c.5 0 .8 0 .97-.03.33-.07.53-.17.73-.37.1-.2.2-.3.25-.5.05-.2.05-.3.05-.3z"/></svg>